<svg width="30" height="30" viewBox="0 0 30 30" fill="none" xmlns="http://www.w3.org/2000/svg">
<path d="M14.5686 7.23492C14.2492 5.4941 15.0724 3.7026 16.0637 2.49527C17.1561 1.16314 19.031 0.141562 20.6331 0.0292969C20.9038 1.85443 20.1589 3.6327 19.1785 4.89053C18.1267 6.24182 16.3184 7.28971 14.5686 7.23492ZM23.9664 13.5428C24.4622 12.1597 25.4443 10.9152 26.968 10.0755C25.4283 8.15414 23.2665 7.03863 21.2264 7.03863C18.5273 7.03863 17.3861 8.32459 15.5113 8.32459C13.58 8.32459 12.1149 7.03863 9.77696 7.03863C7.48436 7.03863 5.04399 8.43598 3.49629 10.8224C2.92723 11.7046 2.54174 12.8004 2.33151 14.0211C1.74815 17.4452 2.61955 21.9053 5.21895 25.8654C6.48281 27.7871 8.16744 29.9516 10.3682 29.9705C12.3287 29.9896 12.8849 28.717 15.5389 28.7039C18.1968 28.6888 18.7005 29.9837 20.6583 29.965C22.8598 29.9464 24.6372 27.551 25.9011 25.6296C26.801 24.2507 27.1413 23.5543 27.8411 21.9954C24.2829 20.6535 22.8195 16.7327 23.9664 13.5428Z" fill="black"/>
</svg>
